<mxfile host="app.diagrams.net" modified="2024-04-09T07:38:59.994Z" agent="Mozilla/5.0 (X11; Ubuntu; Linux x86_64; rv:124.0) Gecko/20100101 Firefox/124.0" version="24.1.0" etag="8x9WkjDuWHC29R47La9-" type="github">
  <diagram name="Page-1" id="tj6wFdtUp12XKoyAEKEy">
    <mxGraphModel>
      <root>
        <mxCell id="0" />
        <mxCell id="1" parent="0" />
      </root>
    </mxGraphModel>
  </diagram>
</mxfile>
